<svg id="visual" viewBox="0 0 1200 300" width="1200" height="300" xmlns="http://www.w3.org/2000/svg" xmlns:xlink="http://www.w3.org/1999/xlink" version="1.1"><path d="M0 27L25 55.8C50 84.7 100 142.3 150 167.2C200 192 250 184 300 160C350 136 400 96 450 95.7C500 95.3 550 134.7 600 139.7C650 144.7 700 115.3 750 132.8C800 150.3 850 214.7 900 230.7C950 246.7 1000 214.3 1050 189.3C1100 164.3 1150 146.7 1175 137.8L1200 129L1200 301L1175 301C1150 301 1100 301 1050 301C1000 301 950 301 900 301C850 301 800 301 750 301C700 301 650 301 600 301C550 301 500 301 450 301C400 301 350 301 300 301C250 301 200 301 150 301C100 301 50 301 25 301L0 301Z" fill="#151418" stroke-linecap="round" stroke-linejoin="miter"></path></svg>